<?xml version="1.0" encoding="utf-8"?>
<!-- Generator: Adobe Illustrator 12.0.0, SVG Export Plug-In . SVG Version: 6.00 Build 51448)  -->
<!DOCTYPE svg PUBLIC "-//W3C//DTD SVG 1.1//EN" "http://www.w3.org/Graphics/SVG/1.1/DTD/svg11.dtd" [
	<!ENTITY ns_svg "http://www.w3.org/2000/svg">
	<!ENTITY ns_xlink "http://www.w3.org/1999/xlink">
]>
<svg  version="1.1" id="Layer_1" xmlns="&ns_svg;" xmlns:xlink="&ns_xlink;" width="32.527" height="27.35"
	 viewBox="0 0 32.527 27.35" overflow="visible" enable-background="new 0 0 32.527 27.35" xml:space="preserve">
<g>
	<path fill="none" stroke="#FFF200" d="M20.874,12.656c0,4.72-3.825,8.546-8.544,8.546s-8.544-3.826-8.544-8.546
		c0-4.426,3.369-8.065,7.685-8.5c0.282-0.026,0.572-0.043,0.859-0.043C17.049,4.113,20.874,7.939,20.874,12.656z"/>
	<line fill="none" stroke="#FFF200" x1="10.881" y1="0.058" x2="11.315" y2="3.822"/>
	<line fill="none" stroke="#FFF200" x1="17.398" y1="1.071" x2="16.24" y2="4.547"/>
	<line fill="none" stroke="#FFF200" x1="23.046" y1="5.271" x2="20.006" y2="7.878"/>
	<line fill="none" stroke="#FFF200" x1="25.51" y1="11.354" x2="21.453" y2="11.643"/>
	<line fill="none" stroke="#FFF200" x1="24.783" y1="18.305" x2="20.731" y2="16.567"/>
	<line fill="none" stroke="#FFF200" x1="20.15" y1="23.664" x2="17.833" y2="20.043"/>
	<line fill="none" stroke="#FFF200" x1="13.779" y1="26.127" x2="13.487" y2="21.491"/>
	<line fill="none" stroke="#FFF200" x1="6.826" y1="24.969" x2="9.578" y2="20.911"/>
	<line fill="none" stroke="#FFF200" x1="1.902" y1="20.188" x2="5.379" y2="17.871"/>
	<line fill="none" stroke="#FFF200" x1="0.02" y1="14.54" x2="3.641" y2="14.395"/>
	<line fill="none" stroke="#FFF200" x1="0.6" y1="7.732" x2="4.363" y2="9.182"/>
	<line fill="none" stroke="#FFF200" x1="4.653" y1="2.23" x2="7.116" y2="5.852"/>
	<path fill="none" stroke="#FFF200" d="M20.874,12.656c0,0,5.794-1.157,5.214,4.347c0,0.29,5.07-1.883,5.939,4.199
		c0,0.145-0.146,4.635-3.621,5.358c0.288,0.29-18.682,0.29-18.682,0.29s-5.94-1.303-3.622-6.518"/>
</g>
</svg>
