<?xml version="1.0" encoding="utf-8"?>
<!-- Generator: Adobe Illustrator 12.0.0, SVG Export Plug-In . SVG Version: 6.00 Build 51448)  -->
<!DOCTYPE svg PUBLIC "-//W3C//DTD SVG 1.1//EN" "http://www.w3.org/Graphics/SVG/1.1/DTD/svg11.dtd" [
	<!ENTITY ns_svg "http://www.w3.org/2000/svg">
	<!ENTITY ns_xlink "http://www.w3.org/1999/xlink">
]>
<svg  version="1.1" id="Layer_1" xmlns="&ns_svg;" xmlns:xlink="&ns_xlink;" width="35.408" height="28.7"
	 viewBox="0 0 35.408 28.7" overflow="visible" enable-background="new 0 0 35.408 28.7" xml:space="preserve">
<g>
	<path fill="none" stroke="#FFF200" d="M8.502,19.066c0,0,2.606-10.338,12.745-4.215c-0.104,0,5.018-1.305,6.924,3.713
		c-0.102,0.201,5.822-1.306,6.725,4.015c0.1,0.2-0.301,5.521-4.315,5.521c0-0.102-20.773,0.1-20.773,0.1S1.774,23.984,8.502,19.066z
		"/>
	<path fill="none" stroke="#FFF200" d="M22,14.199c1.739-11.006-8.255-13.613-8.397-13.901c7.098,9.558-3.476,14.626-3.333,14.481
		c-4.778,2.464-9.558-1.883-9.558-1.883s1.014,6.519,5.648,8.255"/>
</g>
</svg>
