<?xml version="1.0" encoding="utf-8"?>
<!-- Generator: Adobe Illustrator 12.0.0, SVG Export Plug-In . SVG Version: 6.00 Build 51448)  -->
<!DOCTYPE svg PUBLIC "-//W3C//DTD SVG 1.1//EN" "http://www.w3.org/Graphics/SVG/1.1/DTD/svg11.dtd" [
	<!ENTITY ns_svg "http://www.w3.org/2000/svg">
	<!ENTITY ns_xlink "http://www.w3.org/1999/xlink">
]>
<svg  version="1.1" id="Layer_1" xmlns="&ns_svg;" xmlns:xlink="&ns_xlink;" width="17.333" height="32" viewBox="0 0 17.333 32"
	 overflow="visible" enable-background="new 0 0 17.333 32" xml:space="preserve">
<g>
	<path fill="#FFF200" d="M1.37,26.667v-22h7.499c2.262,0,4.045,0.459,5.353,1.378c1.306,0.918,1.96,2.153,1.96,3.707
		c0,1.212-0.396,2.277-1.193,3.195c-0.796,0.919-1.844,1.563-3.145,1.932v0.057c1.632,0.171,2.945,0.735,3.941,1.69
		c0.998,0.957,1.496,2.168,1.496,3.636c0,1.912-0.746,3.457-2.238,4.641c-1.492,1.175-3.463,1.767-5.912,1.767H1.37V26.667z
		 M5.089,7.465v6.434h2.696c1.415,0,2.514-0.313,3.299-0.937c0.785-0.625,1.179-1.482,1.179-2.571c0-1.95-1.456-2.925-4.37-2.925
		L5.089,7.465L5.089,7.465z M5.089,16.711v7.157H8.59c1.518,0,2.696-0.322,3.534-0.966c0.836-0.645,1.254-1.539,1.254-2.686
		c0-2.338-1.721-3.507-5.16-3.507L5.089,16.711L5.089,16.711z"/>
</g>
<rect fill="#F16A24" width="17.333" height="5"/>
<rect y="27" fill="#F16A24" width="17.333" height="5"/>
</svg>
