<?xml version="1.0" encoding="utf-8"?>
<!-- Generator: Adobe Illustrator 12.0.0, SVG Export Plug-In . SVG Version: 6.00 Build 51448)  -->
<!DOCTYPE svg PUBLIC "-//W3C//DTD SVG 1.1//EN" "http://www.w3.org/Graphics/SVG/1.1/DTD/svg11.dtd" [
	<!ENTITY ns_svg "http://www.w3.org/2000/svg">
	<!ENTITY ns_xlink "http://www.w3.org/1999/xlink">
]>
<svg  version="1.1" id="Layer_1" xmlns="&ns_svg;" xmlns:xlink="&ns_xlink;" width="89.637" height="72.568"
	 viewBox="0 0 89.637 72.568" overflow="visible" enable-background="new 0 0 89.637 72.568" xml:space="preserve">
<g>
	<path fill="none" stroke="#FFF200" stroke-width="3" d="M21.727,48.098c0,0,6.557-26,32.053-10.604
		c-0.256,0,12.617-3.276,17.414,9.339c-0.256,0.504,14.641-3.276,16.911,10.1c0.247,0.504-0.76,13.88-10.857,13.88
		c0-0.252-52.242,0.252-52.242,0.252S4.808,60.467,21.727,48.098z"/>
	<path fill="none" stroke="#FFF200" stroke-width="3" d="M55.676,35.856c4.37-27.679-20.76-34.234-21.119-34.962
		c17.849,24.038-8.741,36.785-8.383,36.422c-12.02,6.194-24.038-4.737-24.038-4.737s2.552,16.391,14.205,20.76"/>
</g>
</svg>
