<?xml version="1.0" encoding="utf-8"?>
<!-- Generator: Adobe Illustrator 12.0.0, SVG Export Plug-In . SVG Version: 6.00 Build 51448)  -->
<!DOCTYPE svg PUBLIC "-//W3C//DTD SVG 1.1//EN" "http://www.w3.org/Graphics/SVG/1.1/DTD/svg11.dtd" [
	<!ENTITY ns_svg "http://www.w3.org/2000/svg">
	<!ENTITY ns_xlink "http://www.w3.org/1999/xlink">
]>
<svg  version="1.1" id="Layer_1" xmlns="&ns_svg;" xmlns:xlink="&ns_xlink;" width="89.719" height="77.628"
	 viewBox="0 0 89.719 77.628" overflow="visible" enable-background="new 0 0 89.719 77.628" xml:space="preserve">
<path fill="none" stroke="#BDBDBF" stroke-width="7" d="M44.733,13.962c0,0,7.94-8.551,11.758-9.62
	c3.817-1.068,15.271-1.526,21.073,4.429s9.314,12.979,8.551,18.782s-1.527,9.925-3.971,14.048S68.707,55.497,66.264,57.635
	c-2.443,2.138-19.851,15.27-21.225,16.491c0.152,0.152-15.271-11.147-16.645-12.369C27.02,60.537,11.598,47.404,9.307,44.35
	S3.352,32.592,3.504,27.248s1.833-10.689,4.734-14.659c2.901-3.971,8.246-7.635,13.896-8.704c5.65-1.068,12.063,0.153,15.728,2.901
	C41.527,9.535,44.733,13.962,44.733,13.962z"/>
</svg>
