<?xml version="1.0" encoding="utf-8"?>
<!-- Generator: Adobe Illustrator 12.0.0, SVG Export Plug-In . SVG Version: 6.00 Build 51448)  -->
<!DOCTYPE svg PUBLIC "-//W3C//DTD SVG 1.1//EN" "http://www.w3.org/Graphics/SVG/1.1/DTD/svg11.dtd" [
	<!ENTITY ns_svg "http://www.w3.org/2000/svg">
	<!ENTITY ns_xlink "http://www.w3.org/1999/xlink">
]>
<svg  version="1.1" id="Layer_1" xmlns="&ns_svg;" xmlns:xlink="&ns_xlink;" width="36.007" height="33.109"
	 viewBox="0 0 36.007 33.109" overflow="visible" enable-background="new 0 0 36.007 33.109" xml:space="preserve">
<path fill="none" stroke="#ED1C24" stroke-width="2" d="M35.007,26.797c0,2.938-2.374,5.313-5.312,5.313H6.313
	C3.383,32.109,1,29.734,1,26.797V6.314C1,3.379,3.383,1,6.313,1h23.383c2.938,0,5.312,2.379,5.312,5.314V26.797z"/>
<g>
	<path fill="#ED1C24" d="M13.867,10.403c-1.226,5.48-2.85,9.743-4.872,12.79l-1.964-1.436c1.905-2.837,3.433-6.853,4.582-12.047
		L13.867,10.403z M20.022,24.439c0,2.106-0.852,3.159-2.555,3.159c-1.637,0-2.648-0.008-3.034-0.024l-0.881-2.442
		c0.654,0.067,1.729,0.101,3.223,0.101c0.537,0,0.806-0.239,0.806-0.718V5.104h2.442V24.439z M29.791,22.211l-2.165,1.146
		c-0.848-3.776-2.266-8.057-4.255-12.84l2.115-0.806C27.206,13.571,28.641,17.738,29.791,22.211z"/>
</g>
</svg>
