<?xml version="1.0" encoding="utf-8"?>
<!-- Generator: Adobe Illustrator 12.0.0, SVG Export Plug-In . SVG Version: 6.00 Build 51448)  -->
<!DOCTYPE svg PUBLIC "-//W3C//DTD SVG 1.1//EN" "http://www.w3.org/Graphics/SVG/1.1/DTD/svg11.dtd" [
	<!ENTITY ns_svg "http://www.w3.org/2000/svg">
	<!ENTITY ns_xlink "http://www.w3.org/1999/xlink">
]>
<svg  version="1.1" id="Layer_1" xmlns="&ns_svg;" xmlns:xlink="&ns_xlink;" width="17.333" height="32" viewBox="0 0 17.333 32"
	 overflow="visible" enable-background="new 0 0 17.333 32" xml:space="preserve">
<g>
	<path fill="#ED1C24" d="M1.37,26.667v-22h7.499c2.262,0,4.046,0.459,5.353,1.378c1.306,0.918,1.96,2.153,1.96,3.707
		c0,1.212-0.397,2.277-1.193,3.195c-0.796,0.919-1.844,1.563-3.145,1.932v0.057c1.632,0.171,2.946,0.735,3.942,1.69
		c0.997,0.957,1.496,2.168,1.496,3.636c0,1.912-0.747,3.456-2.239,4.64c-1.492,1.175-3.463,1.767-5.911,1.767H1.37z M5.089,7.465
		v6.434h2.696c1.415,0,2.515-0.313,3.3-0.937c0.785-0.625,1.178-1.482,1.178-2.571c0-1.95-1.456-2.925-4.37-2.925H5.089z
		 M5.089,16.711v7.157H8.59c1.518,0,2.696-0.322,3.533-0.966c0.836-0.644,1.254-1.538,1.254-2.685c0-2.338-1.72-3.507-5.159-3.507
		H5.089z"/>
</g>
<rect fill="#FFFFFF" width="17.333" height="5"/>
<rect y="27" fill="#FFFFFF" width="17.333" height="5"/>
</svg>
