<?xml version="1.0" encoding="utf-8"?>
<!-- Generator: Adobe Illustrator 12.0.0, SVG Export Plug-In . SVG Version: 6.00 Build 51448)  -->
<!DOCTYPE svg PUBLIC "-//W3C//DTD SVG 1.1//EN" "http://www.w3.org/Graphics/SVG/1.1/DTD/svg11.dtd" [
	<!ENTITY ns_svg "http://www.w3.org/2000/svg">
	<!ENTITY ns_xlink "http://www.w3.org/1999/xlink">
]>
<svg  version="1.1" id="Layer_1" xmlns="&ns_svg;" xmlns:xlink="&ns_xlink;" width="46.654" height="33.002"
	 viewBox="0 0 46.654 33.002" overflow="visible" enable-background="new 0 0 46.654 33.002" xml:space="preserve">
<g>
	<g>
		<g>
			<path fill="none" stroke="#ED1C24" stroke-width="3" d="M39.451,26.104h5.614c0.368-1.078-0.529-2.228-0.529-3.423v-3.584
				c0-5.861-0.342-10.608-6.198-10.608H8.317c-5.857,0-6.207,4.748-6.207,10.608v3.584c0,1.195-0.889,2.345-0.521,3.423h5.902"/>
		</g>
		<path fill="#ED1C24" d="M40.574,21.069c0,0.791-0.638,1.438-1.428,1.438H7.509c-0.791,0-1.437-0.646-1.437-1.438l0,0
			c0-0.795,0.646-1.438,1.437-1.438h31.638C39.937,19.631,40.574,20.274,40.574,21.069L40.574,21.069z"/>
		<polygon fill="#FFFFFF" stroke="#ED1C24" stroke-width="3" points="40.781,31.502 6.17,31.502 8.82,21.2 38.131,21.2 		"/>
		<polyline fill="#FFFFFF" stroke="#ED1C24" stroke-width="3" points="8.82,8.363 11.461,1.5 35.481,1.5 38.131,8.489 		"/>
		<path fill="#ED1C24" d="M7.985,14.575c0,0.786-0.646,1.428-1.428,1.428c-0.781,0-1.419-0.642-1.419-1.428s0.638-1.424,1.419-1.424
			C7.338,13.151,7.985,13.789,7.985,14.575z"/>
		<circle fill="#ED1C24" cx="11.398" cy="14.575" r="1.428"/>
		<path fill="#ED1C24" d="M39.2,14.575c0,0.786-0.638,1.428-1.429,1.428c-0.781,0-1.419-0.642-1.419-1.428s0.638-1.424,1.419-1.424
			C38.563,13.151,39.2,13.789,39.2,14.575z"/>
		<path fill="#ED1C24" d="M36.64,9.369c0,0.137-0.574,0.25-1.284,0.25H12.207c-0.719,0-1.293-0.112-1.293-0.25l0,0
			c0-0.138,0.575-0.25,1.293-0.25h23.148C36.065,9.118,36.64,9.23,36.64,9.369L36.64,9.369z"/>
	</g>
</g>
</svg>
