<?xml version="1.0" encoding="utf-8"?>
<!-- Generator: Adobe Illustrator 12.0.0, SVG Export Plug-In . SVG Version: 6.00 Build 51448)  -->
<!DOCTYPE svg PUBLIC "-//W3C//DTD SVG 1.1//EN" "http://www.w3.org/Graphics/SVG/1.1/DTD/svg11.dtd" [
	<!ENTITY ns_svg "http://www.w3.org/2000/svg">
	<!ENTITY ns_xlink "http://www.w3.org/1999/xlink">
]>
<svg  version="1.1" id="Layer_1" xmlns="&ns_svg;" xmlns:xlink="&ns_xlink;" width="29" height="29.004" viewBox="0 0 29 29.004"
	 overflow="visible" enable-background="new 0 0 29 29.004" xml:space="preserve">
<g>
	<path fill="none" stroke="#FFFFFF" stroke-width="3" d="M27.5,14.5c0,7.186-5.823,13.004-13,13.004c-7.177,0-13-5.818-13-13.004
		c0-7.177,5.823-13,13-13C21.677,1.5,27.5,7.323,27.5,14.5z"/>
	<line fill="none" stroke="#FFFFFF" stroke-width="3" x1="1.796" y1="9.42" x2="26.606" y2="9.42"/>
	<line fill="none" stroke="#FFFFFF" stroke-width="3" x1="1.947" y1="18.836" x2="26.456" y2="18.836"/>
	<polyline fill="none" stroke="#FFFFFF" stroke-width="3" points="14.199,0.903 14.199,1.5 14.199,27.504 	"/>
	<path fill="none" stroke="#FFFFFF" stroke-width="3" d="M13.004,1.951c0,0-5.828,4.929-5.828,12.549
		c0,7.624,5.677,12.557,5.677,12.557l3.141-0.451"/>
	<path fill="none" stroke="#FFFFFF" stroke-width="3" d="M15.243,1.951c0,0,5.832,4.929,5.832,12.549
		c0,7.624-5.682,12.557-5.682,12.557l-3.132-0.451"/>
</g>
</svg>
