<?xml version="1.0" encoding="utf-8"?>
<!-- Generator: Adobe Illustrator 12.0.0, SVG Export Plug-In . SVG Version: 6.00 Build 51448)  -->
<!DOCTYPE svg PUBLIC "-//W3C//DTD SVG 1.1//EN" "http://www.w3.org/Graphics/SVG/1.1/DTD/svg11.dtd" [
	<!ENTITY ns_svg "http://www.w3.org/2000/svg">
	<!ENTITY ns_xlink "http://www.w3.org/1999/xlink">
]>
<svg  version="1.1" id="Layer_1" xmlns="&ns_svg;" xmlns:xlink="&ns_xlink;" width="32.105" height="31.879"
	 viewBox="0 0 32.105 31.879" overflow="visible" enable-background="new 0 0 32.105 31.879" xml:space="preserve">
<g>
	<polygon fill="none" stroke="#000000" stroke-width="3" points="6.137,12.692 6.984,10.49 4.438,7.096 7.492,4.042 10.886,6.417 
		13.092,5.234 14.107,1.5 18.512,1.5 18.512,5.569 21.394,6.417 24.62,4.042 27.842,7.096 24.955,10.322 26.146,12.86 
		30.556,13.368 30.388,17.948 26.146,18.288 24.787,20.835 28.009,24.564 24.787,27.618 21.565,24.736 18.344,25.919 17.832,30.16 
		13.768,30.328 12.752,25.751 10.718,24.736 7.664,27.106 4.27,24.057 6.984,21.17 5.625,18.288 1.556,17.441 1.723,13.708 	"/>
	<path fill="none" stroke="#000000" stroke-width="3" d="M21.565,15.742c0,3-2.433,5.428-5.428,5.428
		c-2.991,0-5.419-2.429-5.419-5.428c0-2.995,2.429-5.419,5.419-5.419C19.133,10.322,21.565,12.747,21.565,15.742z"/>
</g>
</svg>
