<?xml version="1.0" encoding="utf-8"?>
<!-- Generator: Adobe Illustrator 12.0.0, SVG Export Plug-In . SVG Version: 6.00 Build 51448)  -->
<!DOCTYPE svg PUBLIC "-//W3C//DTD SVG 1.1//EN" "http://www.w3.org/Graphics/SVG/1.1/DTD/svg11.dtd" [
	<!ENTITY ns_svg "http://www.w3.org/2000/svg">
	<!ENTITY ns_xlink "http://www.w3.org/1999/xlink">
]>
<svg  version="1.1" id="Layer_1" xmlns="&ns_svg;" xmlns:xlink="&ns_xlink;" width="79.561" height="66.961"
	 viewBox="0 0 79.561 66.961" overflow="visible" enable-background="new 0 0 79.561 66.961" xml:space="preserve">
<g>
	<path fill="none" stroke="#ED1C24" stroke-width="3" d="M50.881,30.874c0,11.498-9.322,20.819-20.82,20.819
		c-11.497,0-20.819-9.321-20.819-20.819c0-10.786,8.209-19.659,18.723-20.714c0.69-0.068,1.394-0.104,2.097-0.104
		C41.559,10.056,50.881,19.378,50.881,30.874z"/>
	<line fill="none" stroke="#ED1C24" stroke-width="3" x1="26.529" y1="0.172" x2="27.588" y2="9.347"/>
	<line fill="none" stroke="#ED1C24" stroke-width="3" x1="42.41" y1="2.643" x2="39.59" y2="11.113"/>
	<line fill="none" stroke="#ED1C24" stroke-width="3" x1="56.174" y1="12.877" x2="48.763" y2="19.229"/>
	<line fill="none" stroke="#ED1C24" stroke-width="3" x1="62.18" y1="27.697" x2="52.295" y2="28.404"/>
	<line fill="none" stroke="#ED1C24" stroke-width="3" x1="60.409" y1="44.637" x2="50.533" y2="40.402"/>
	<line fill="none" stroke="#ED1C24" stroke-width="3" x1="49.118" y1="57.698" x2="43.469" y2="48.872"/>
	<line fill="none" stroke="#ED1C24" stroke-width="3" x1="33.593" y1="63.694" x2="32.882" y2="52.404"/>
	<line fill="none" stroke="#ED1C24" stroke-width="3" x1="16.649" y1="60.874" x2="23.353" y2="50.989"/>
	<line fill="none" stroke="#ED1C24" stroke-width="3" x1="4.651" y1="49.228" x2="13.121" y2="43.578"/>
	<line fill="none" stroke="#ED1C24" stroke-width="3" x1="0.061" y1="35.464" x2="8.886" y2="35.108"/>
	<line fill="none" stroke="#ED1C24" stroke-width="3" x1="1.475" y1="18.875" x2="10.648" y2="22.405"/>
	<line fill="none" stroke="#ED1C24" stroke-width="3" x1="11.355" y1="5.465" x2="17.356" y2="14.289"/>
	<path fill="none" stroke="#ED1C24" stroke-width="3" d="M50.881,30.874c0,0,14.119-2.821,12.704,10.587
		c0,0.707,12.358-4.587,14.476,10.236c0,0.352-0.355,11.294-8.826,13.056c0.703,0.708-45.526,0.708-45.526,0.708
		s-14.475-3.177-8.826-15.882"/>
</g>
</svg>
