<?xml version="1.0" encoding="utf-8"?>
<!-- Generator: Adobe Illustrator 12.0.0, SVG Export Plug-In . SVG Version: 6.00 Build 51448)  -->
<!DOCTYPE svg PUBLIC "-//W3C//DTD SVG 1.1//EN" "http://www.w3.org/Graphics/SVG/1.1/DTD/svg11.dtd" [
	<!ENTITY ns_svg "http://www.w3.org/2000/svg">
	<!ENTITY ns_xlink "http://www.w3.org/1999/xlink">
]>
<svg  version="1.1" id="Layer_1" xmlns="&ns_svg;" xmlns:xlink="&ns_xlink;" width="69.271" height="85.01"
	 viewBox="0 0 69.271 85.01" overflow="visible" enable-background="new 0 0 69.271 85.01" xml:space="preserve">
<g>
	<path fill="none" stroke="#BDBDBF" stroke-width="7" d="M29.223,19.995c0,0-12.502,6.251-17.19,13.545
		C7.344,40.833,5.26,60.106,5.26,64.274s3.646,7.293-1.042,17.189c0.521,0.521,6.251-3.646,8.855-3.646
		c2.605,0,6.772,3.646,20.317,3.646c13.544,0,20.837-3.646,23.962-3.646c3.126,0,5.209,3.127,8.336,3.127
		c0.52,1.041-1.564-5.73-2.605-10.42c0,0,1.563-10.939,0-21.357s-6.251-23.441-19.274-27.609c0.521,1.042-3.126-1.563-3.126-1.563
		l6.773-11.46c0,0,1.563-4.688-3.126-4.168c0.521,0.521-2.605,1.563-8.335,1.563c-5.73,0-9.898-4.688-11.982-1.042
		C21.93,8.535,29.223,19.995,29.223,19.995z"/>
	<line fill="none" stroke="#BDBDBF" stroke-width="7" x1="18.408" y1="19.995" x2="52.019" y2="19.995"/>
	<line fill="none" stroke="#BDBDBF" stroke-width="7" x1="40.683" y1="19.995" x2="35.995" y2="31.977"/>
	<line fill="none" stroke="#BDBDBF" stroke-width="7" x1="40.683" y1="19.995" x2="46.935" y2="33.54"/>
	<g>
		<path fill="#BDBDBF" stroke="#BDBDBF" stroke-width="2" d="M37.144,73.565h-2.182v-3.867c-2.555,0-4.747-0.539-6.576-1.617v-3.867
			c0.727,0.612,1.767,1.148,3.118,1.609c1.352,0.459,2.504,0.689,3.458,0.689v-8.467c-2.623-1.125-4.413-2.27-5.367-3.436
			c-0.953-1.162-1.43-2.58-1.43-4.249c0-1.784,0.633-3.353,1.898-4.702c1.268-1.353,2.899-2.137,4.898-2.353V39.95h2.182v3.289
			c2.441,0.078,4.201,0.443,5.281,1.09v3.782c-1.42-1.011-3.181-1.573-5.281-1.687v8.74c2.498,1.114,4.281,2.229,5.35,3.35
			c1.068,1.117,1.602,2.518,1.602,4.199c0,1.851-0.616,3.383-1.849,4.592c-1.233,1.209-2.935,1.963-5.103,2.257V73.565z
			 M34.962,46.51c-2.056,0.433-3.084,1.597-3.084,3.493c0,0.875,0.207,1.609,0.623,2.207c0.413,0.596,1.234,1.234,2.461,1.916V46.51
			z M37.144,66.394c2.158-0.443,3.236-1.578,3.236-3.408c0-1.521-1.078-2.839-3.236-3.951V66.394z"/>
	</g>
</g>
</svg>
