<?xml version="1.0" encoding="utf-8"?>
<!-- Generator: Adobe Illustrator 12.0.0, SVG Export Plug-In . SVG Version: 6.00 Build 51448)  -->
<!DOCTYPE svg PUBLIC "-//W3C//DTD SVG 1.1//EN" "http://www.w3.org/Graphics/SVG/1.1/DTD/svg11.dtd" [
	<!ENTITY ns_svg "http://www.w3.org/2000/svg">
	<!ENTITY ns_xlink "http://www.w3.org/1999/xlink">
]>
<svg  version="1.1" id="Layer_1" xmlns="&ns_svg;" xmlns:xlink="&ns_xlink;" width="83.105" height="69.315"
	 viewBox="0 0 83.105 69.315" overflow="visible" enable-background="new 0 0 83.105 69.315" xml:space="preserve">
<g>
	<path fill="none" stroke="#BCBDBF" stroke-width="8" d="M79.105,62.709c0,1.439-2.154,2.605-4.814,2.605H8.814
		C6.155,65.315,4,64.149,4,62.709V6.605C4,5.166,6.155,4,8.814,4h65.476c2.66,0,4.814,1.166,4.814,2.605V62.709z"/>
	<path fill="none" stroke="#BCBDBF" stroke-width="8" d="M30.392,28.473c0,0.311-0.483,0.563-1.078,0.563H14.643
		c-0.596,0-1.079-0.252-1.079-0.563V16.376c0-0.311,0.483-0.562,1.079-0.562h14.671c0.595,0,1.078,0.251,1.078,0.562V28.473z"/>
	<path fill="none" stroke="#BCBDBF" stroke-width="8" d="M30.392,51.821c0,0.311-0.483,0.563-1.078,0.563H14.643
		c-0.596,0-1.079-0.252-1.079-0.563V39.724c0-0.311,0.483-0.562,1.079-0.562h14.671c0.595,0,1.078,0.251,1.078,0.562V51.821z"/>
	<line fill="none" stroke="#BCBDBF" stroke-width="8" x1="35.505" y1="18.065" x2="67.573" y2="18.065"/>
	<line fill="none" stroke="#BCBDBF" stroke-width="8" x1="34.662" y1="34.942" x2="66.729" y2="34.942"/>
	<line fill="none" stroke="#BCBDBF" stroke-width="8" x1="34.662" y1="50.414" x2="66.729" y2="50.414"/>
</g>
</svg>
