<?xml version="1.0" encoding="utf-8"?>
<!-- Generator: Adobe Illustrator 12.0.0, SVG Export Plug-In . SVG Version: 6.00 Build 51448)  -->
<!DOCTYPE svg PUBLIC "-//W3C//DTD SVG 1.1//EN" "http://www.w3.org/Graphics/SVG/1.1/DTD/svg11.dtd" [
	<!ENTITY ns_svg "http://www.w3.org/2000/svg">
	<!ENTITY ns_xlink "http://www.w3.org/1999/xlink">
]>
<svg  version="1.1" id="Layer_1" xmlns="&ns_svg;" xmlns:xlink="&ns_xlink;" width="466.375" height="60.285"
	 viewBox="0 0 466.375 60.285" overflow="visible" enable-background="new 0 0 466.375 60.285" xml:space="preserve">
<g>
	<path fill="#818183" stroke="#818183" stroke-width="4" d="M2,30.828c0-8.602,2.408-15.557,7.225-20.865S20.539,2,28.719,2
		c7.664,0,13.816,2.578,18.457,7.734s6.961,11.766,6.961,19.828c0,8.555-2.367,15.48-7.102,20.777s-11.133,7.945-19.195,7.945
		c-7.688,0-13.916-2.555-18.686-7.664S2,38.914,2,30.828z M10.859,30.23c0,6,1.535,10.939,4.605,14.818s7.219,5.818,12.445,5.818
		c5.484,0,9.75-1.846,12.797-5.537s4.57-8.678,4.57-14.959c0-6.422-1.471-11.508-4.412-15.258s-7.131-5.625-12.568-5.625
		c-5.297,0-9.527,1.945-12.691,5.836S10.859,24.184,10.859,30.23z"/>
	<path fill="#818183" stroke="#818183" stroke-width="4" d="M109.93,57.371h-9.422L74.457,17.223
		c-0.961-1.477-1.664-2.754-2.109-3.832h-0.211c0.211,1.406,0.316,4.055,0.316,7.945v36.035h-8.191V2.914h9.984l25.277,39.375
		c1.195,1.875,1.992,3.176,2.391,3.902h0.176c-0.258-1.688-0.387-4.289-0.387-7.805V2.914h8.227V57.371z"/>
	<path fill="#818183" stroke="#818183" stroke-width="4" d="M153.734,57.371H123.57V2.914h28.934v7.242h-20.496v16.031h19.02v7.207
		h-19.02v16.734h21.727V57.371z"/>
	<path fill="#818183" stroke="#818183" stroke-width="4" d="M210.617,10.156h-20.531v16.91h18.949v7.207h-18.949v23.098h-8.438
		V2.914h28.969V10.156z"/>
	<path fill="#818183" stroke="#818183" stroke-width="4" d="M216.98,30.828c0-8.602,2.408-15.557,7.225-20.865S235.52,2,243.699,2
		c7.664,0,13.816,2.578,18.457,7.734s6.961,11.766,6.961,19.828c0,8.555-2.367,15.48-7.102,20.777s-11.133,7.945-19.195,7.945
		c-7.688,0-13.916-2.555-18.686-7.664S216.98,38.914,216.98,30.828z M225.84,30.23c0,6,1.535,10.939,4.605,14.818
		s7.219,5.818,12.445,5.818c5.484,0,9.75-1.846,12.797-5.537s4.57-8.678,4.57-14.959c0-6.422-1.471-11.508-4.412-15.258
		s-7.131-5.625-12.568-5.625c-5.297,0-9.527,1.945-12.691,5.836S225.84,24.184,225.84,30.23z"/>
	<path fill="#818183" stroke="#818183" stroke-width="4" d="M320.586,57.371h-9.879l-8.859-14.836
		c-1.734-2.906-3.311-4.887-4.729-5.941s-3.041-1.582-4.869-1.582h-4.57v22.359h-8.438V2.914h17.332
		c5.648,0,10.014,1.271,13.096,3.814s4.623,6.146,4.623,10.811c0,3.656-1.066,6.785-3.199,9.387s-5.109,4.418-8.93,5.449v0.141
		c2.438,0.844,5.168,3.703,8.191,8.578L320.586,57.371z M287.68,9.875v18.141h7.488c3.117,0,5.607-0.902,7.471-2.707
		s2.795-4.102,2.795-6.891c0-5.695-3.375-8.543-10.125-8.543H287.68z"/>
	<path fill="#818183" stroke="#818183" stroke-width="4" d="M389.387,57.371h-9.281l-5.098-14.168h-21.797l-4.852,14.168h-9.281
		l20.531-54.457h9.387L389.387,57.371z M372.652,36.207l-7.594-21.48c-0.281-0.773-0.563-2.145-0.844-4.113h-0.246
		c-0.211,1.617-0.504,2.965-0.879,4.043l-7.559,21.551H372.652z"/>
	<path fill="#818183" stroke="#818183" stroke-width="4" d="M426.688,57.371H396.98V2.914h8.438v47.215h21.27V57.371z"/>
	<path fill="#818183" stroke="#818183" stroke-width="4" d="M464.375,57.371h-29.707V2.914h8.438v47.215h21.27V57.371z"/>
</g>
</svg>
